<svg xmlns="http://www.w3.org/2000/svg" xmlns:xlink="http://www.w3.org/1999/xlink" id="body_1" width="256" height="192">

<defs>
            <clipPath  id="1">

                <path clip-rule="evenodd" d="M0 0L800 0L800 600L0 600z" />            </clipPath>
                    <clipPath  id="2">

                        <path clip-rule="evenodd" d="" />                    </clipPath>
</defs>

<g transform="matrix(0.32 0 0 0.32 0 0)">
	<g>
		<g>
            <path d="M663.64703 108.803C 663.64703 133.87343 654.7833 155.27237 637.0558 172.99982C 619.32837 190.72728 597.92944 199.591 572.859 199.591C 547.78864 199.591 526.3897 190.72728 508.6622 172.99982C 490.93475 155.27237 482.071 133.87343 482.071 108.803C 482.071 83.73259 490.93475 62.333652 508.6622 44.606194C 526.3897 26.87873 547.78864 18.015 572.859 18.015C 597.92944 18.015 619.32837 26.87873 637.0558 44.606194C 654.7833 62.333652 663.64703 83.73259 663.64703 108.803C 663.64703 109.85948 663.6286 110.915634 663.5917 111.97146" stroke="#0E0620" stroke-width="3" fill="none" />
            <path d="M561.96497 62.319C 561.96497 65.92929 560.68854 69.010864 558.1357 71.56371C 555.5828 74.11658 552.5013 75.393005 548.891 75.393C 545.28076 75.393005 542.1992 74.11658 539.6463 71.56371C 537.0935 69.010864 535.817 65.92929 535.817 62.319C 535.817 58.708717 537.0935 55.627144 539.6463 53.074287C 542.1992 50.52143 545.28076 49.245003 548.891 49.245C 552.5013 49.245003 555.5828 50.52143 558.1357 53.074287C 560.68854 55.627144 561.96497 58.708717 561.96497 62.319C 561.96497 62.471138 561.96234 62.62323 561.95703 62.775276" stroke="#0E0620" stroke-width="3" fill="none" />
            <path d="M599.732 158.918C 599.73206 161.12411 598.952 163.00714 597.392 164.56708C 595.8321 166.12703 593.9491 166.907 591.743 166.907C 589.5369 166.907 587.65393 166.12703 586.09393 164.56708C 584.53394 163.00714 583.75397 161.12411 583.75397 158.918C 583.75397 156.7119 584.53394 154.82887 586.09393 153.26892C 587.65393 151.70898 589.5369 150.92902 591.743 150.929C 593.9491 150.92902 595.8321 151.70898 597.392 153.26892C 598.952 154.82887 599.73206 156.7119 599.732 158.918C 599.73206 159.01097 599.7304 159.10391 599.7271 159.19681" stroke="#0E0620" stroke-width="3" fill="none" />
            <path d="M476.562 101.461C 446.15802 103.625 426.871 105.682 426.871 109.468C 426.871 116.321 490.037 121.876 567.956 121.876C 645.875 121.876 709.041 116.321 709.041 109.468C 709.041 106.090004 693.69403 104.48 668.79803 102.243004" stroke="#0E0620" stroke-width="3" stroke-linecap="square" fill="none" />
            <path d="M483.985 127.43C 507.447 128.961 536.5 129.866 567.957 129.866C 604.026 129.866 636.93494 128.676 661.87897 126.716995" stroke="#0E0620" stroke-width="3" stroke-linecap="square" fill="none" />
		</g>
		<g>
			<g>
				<g>
                    <path d="M518.07 245.375L518.07 266.581" stroke="#0E0620" stroke-width="3" stroke-linecap="square" fill="none" />
                    <path d="M508.129 255.978L528.01 255.978" stroke="#0E0620" stroke-width="3" stroke-linecap="square" fill="none" />
				</g>
				<g>
                    <path d="M154.55 231.391L154.55 252.598" stroke="#0E0620" stroke-width="3" stroke-linecap="square" fill="none" />
                    <path d="M144.609 241.995L164.49 241.995" stroke="#0E0620" stroke-width="3" stroke-linecap="square" fill="none" />
				</g>
				<g>
                    <path d="M320.135 132.746L320.135 153.952" stroke="#0E0620" stroke-width="3" stroke-linecap="square" fill="none" />
                    <path d="M310.194 143.349L330.075 143.349" stroke="#0E0620" stroke-width="3" stroke-linecap="square" fill="none" />
				</g>
				<g>
                    <path d="M200.67 483.11L200.67 504.316" stroke="#0E0620" stroke-width="3" stroke-linecap="square" fill="none" />
                    <path d="M210.611 493.713L190.73 493.713" stroke="#0E0620" stroke-width="3" stroke-linecap="square" fill="none" />
				</g>
			</g>
			<g>
				<g>
                    <path d="M432.173 380.52L432.173 391.83" stroke="#0E0620" stroke-width="3" stroke-linecap="square" fill="none" />
                    <path d="M426.871 386.175L437.474 386.175" stroke="#0E0620" stroke-width="3" stroke-linecap="square" fill="none" />
				</g>
				<g>
                    <path d="M489.555 299.765L489.555 308.124" stroke="#0E0620" stroke-width="3" stroke-linecap="square" fill="none" />
                    <path d="M485.636 303.945L493.473 303.945" stroke="#0E0620" stroke-width="3" stroke-linecap="square" fill="none" />
				</g>
				<g>
                    <path d="M231.468 291.009L231.468 299.369" stroke="#0E0620" stroke-width="3" stroke-linecap="square" fill="none" />
                    <path d="M227.55 295.189L235.387 295.189" stroke="#0E0620" stroke-width="3" stroke-linecap="square" fill="none" />
				</g>
				<g>
                    <path d="M244.032 547.539L244.032 555.898" stroke="#0E0620" stroke-width="3" stroke-linecap="square" fill="none" />
                    <path d="M247.95 551.719L240.113 551.719" stroke="#0E0620" stroke-width="3" stroke-linecap="square" fill="none" />
				</g>
				<g>
                    <path d="M186.359 406.967L186.359 415.326" stroke="#0E0620" stroke-width="3" stroke-linecap="square" fill="none" />
                    <path d="M190.277 411.146L182.44 411.146" stroke="#0E0620" stroke-width="3" stroke-linecap="square" fill="none" />
				</g>
				<g>
                    <path d="M480.296 406.967L480.296 415.326" stroke="#0E0620" stroke-width="3" stroke-linecap="square" fill="none" />
                    <path d="M484.215 411.146L476.378 411.146" stroke="#0E0620" stroke-width="3" stroke-linecap="square" fill="none" />
				</g>
			</g>
			<g>
                <path d="M596.929 255.978C 596.9291 258.1739 596.1527 260.0482 594.5999 261.60092C 593.04724 263.15366 591.1729 263.93 588.977 263.93C 586.7811 263.93 584.9068 263.15366 583.35406 261.60092C 581.80133 260.0482 581.02496 258.1739 581.02496 255.978C 581.02496 253.78212 581.80133 251.9078 583.35406 250.35509C 584.9068 248.80237 586.7811 248.02602 588.977 248.026C 591.1729 248.02602 593.04724 248.80237 594.5999 250.35509C 596.1527 251.9078 596.9291 253.78212 596.929 255.978C 596.9291 256.07056 596.9274 256.16306 596.92413 256.25552" stroke="#0E0620" stroke-width="3" stroke-linecap="square" fill="none" />
                <path d="M458.018 320.259C 458.018 322.4549 457.24164 324.3292 455.68893 325.88193C 454.13623 327.43466 452.2619 328.211 450.066 328.211C 447.87015 328.211 445.99585 327.43466 444.44308 325.88193C 442.89038 324.3292 442.114 322.4549 442.114 320.259C 442.114 318.0631 442.89038 316.1888 444.44308 314.63608C 445.99585 313.08337 447.87015 312.307 450.066 312.307C 452.2619 312.307 454.13623 313.08337 455.68893 314.63608C 457.24164 316.1888 458.018 318.0631 458.018 320.259C 458.018 320.35156 458.0164 320.44406 458.01315 320.53653" stroke="#0E0620" stroke-width="3" stroke-linecap="square" fill="none" />
                <path d="M176.25499 353.753C 176.25499 355.94888 175.47864 357.82318 173.9259 359.37592C 172.37318 360.92865 170.49887 361.705 168.303 361.705C 166.10712 361.705 164.23282 360.92865 162.68008 359.37592C 161.12737 357.82318 160.351 355.94888 160.351 353.753C 160.351 351.55713 161.12737 349.6828 162.68008 348.13007C 164.23282 346.57736 166.10712 345.801 168.303 345.801C 170.49887 345.801 172.37318 346.57736 173.9259 348.13007C 175.47864 349.6828 176.25499 351.55713 176.25499 353.753C 176.25499 353.84552 176.25339 353.93805 176.25015 354.03052" stroke="#0E0620" stroke-width="3" stroke-linecap="square" fill="none" />
                <path d="M437.474 201.185C 437.47403 203.38089 436.69766 205.25519 435.14493 206.8079C 433.5922 208.36064 431.7179 209.137 429.522 209.137C 427.32614 209.137 425.45184 208.36064 423.89908 206.8079C 422.34637 205.25519 421.57004 203.38089 421.57 201.185C 421.57004 198.98914 422.34637 197.11482 423.89908 195.56209C 425.45184 194.00937 427.32614 193.233 429.522 193.233C 431.7179 193.233 433.5922 194.00937 435.14493 195.56209C 436.69766 197.11482 437.47403 198.98914 437.474 201.185C 437.47403 201.27756 437.4724 201.37006 437.46915 201.46252" stroke="#0E0620" stroke-width="3" stroke-linecap="square" fill="none" />
                <path d="M208.622 176.313C 208.622 178.50888 207.84564 180.3832 206.29291 181.93591C 204.7402 183.48865 202.86589 184.26501 200.67 184.265C 198.47412 184.26501 196.59982 183.48865 195.04709 181.93591C 193.49437 180.3832 192.718 178.50888 192.718 176.313C 192.718 174.11713 193.49437 172.24283 195.04709 170.6901C 196.59982 169.13737 198.47412 168.36102 200.67 168.36101C 202.86589 168.36102 204.7402 169.13737 206.29291 170.6901C 207.84564 172.24283 208.622 174.11713 208.622 176.313C 208.622 176.40555 208.62039 176.49805 208.61716 176.59053" stroke="#0E0620" stroke-width="3" stroke-linecap="square" fill="none" />
                <path d="M141.295 477.014C 141.29501 479.2099 140.51865 481.08423 138.96591 482.63693C 137.4132 484.18964 135.53888 484.966 133.343 484.966C 131.14713 484.966 129.27283 484.18964 127.72009 482.63693C 126.167366 481.08423 125.39101 479.2099 125.391 477.014C 125.39101 474.81815 126.167366 472.94385 127.72009 471.39108C 129.27283 469.83838 131.14713 469.062 133.343 469.062C 135.53888 469.062 137.4132 469.83838 138.96591 471.39108C 140.51865 472.94385 141.29501 474.81815 141.295 477.014C 141.29501 477.10654 141.2934 477.19904 141.29016 477.29153" stroke="#0E0620" stroke-width="3" stroke-linecap="square" fill="none" />
                <path d="M291.473 568.033C 291.47302 570.22894 290.69666 572.1033 289.14392 573.65594C 287.5912 575.20874 285.7169 575.9851 283.521 575.98505C 281.32513 575.9851 279.4508 575.20874 277.89807 573.65594C 276.34537 572.1033 275.56903 570.22894 275.569 568.033C 275.56903 565.83716 276.34537 563.9628 277.89807 562.4101C 279.4508 560.85736 281.32513 560.081 283.521 560.081C 285.7169 560.081 287.5912 560.85736 289.14392 562.4101C 290.69666 563.9628 291.47302 565.83716 291.473 568.033C 291.47302 568.12555 291.47137 568.2181 291.46814 568.31055" stroke="#0E0620" stroke-width="3" stroke-linecap="square" fill="none" />
                <path d="M421.57 482.387C 421.57004 484.5829 420.79367 486.4572 419.24094 488.00992C 417.6882 489.56265 415.8139 490.339 413.618 490.339C 411.42215 490.339 409.54785 489.56265 407.9951 488.00992C 406.44238 486.4572 405.66605 484.5829 405.66602 482.387C 405.66605 480.1911 406.44238 478.3168 407.9951 476.76407C 409.54785 475.21136 411.42215 474.435 413.618 474.435C 415.8139 474.435 417.6882 475.21136 419.24094 476.76407C 420.79367 478.3168 421.57004 480.1911 421.57 482.387C 421.57004 482.47955 421.56842 482.57205 421.56516 482.66452" stroke="#0E0620" stroke-width="3" stroke-linecap="square" fill="none" />
			</g>
			<g>
                <path d="M552.53 296.402C 552.53 297.1341 552.27124 297.7589 551.75354 298.27655C 551.23596 298.7942 550.6111 299.05304 549.879 299.053C 549.147 299.05304 548.52216 298.7942 548.0045 298.27655C 547.4869 297.7589 547.228 297.1341 547.228 296.402C 547.228 295.66998 547.4869 295.0451 548.0045 294.52747C 548.52216 294.00983 549.147 293.75104 549.879 293.751C 550.6111 293.75104 551.23596 294.00983 551.75354 294.52747C 552.27124 295.0451 552.53 295.66998 552.53 296.402C 552.53 296.43286 552.52954 296.46368 552.52844 296.49454" stroke="none" fill="#0E0620" fill-rule="nonzero" />
                <path d="M255.941 229.24C 255.94101 229.97208 255.68219 230.59692 255.16454 231.11455C 254.64691 231.6322 254.02206 231.89102 253.29 231.891C 252.55795 231.89102 251.9331 231.6322 251.41545 231.11455C 250.89783 230.59692 250.639 229.97208 250.63899 229.24C 250.639 228.50797 250.89783 227.88312 251.41545 227.36546C 251.9331 226.84784 252.55795 226.58902 253.29 226.589C 254.02206 226.58902 254.64691 226.84784 255.16454 227.36546C 255.68219 227.88312 255.94101 228.50797 255.941 229.24C 255.94101 229.27087 255.94046 229.3017 255.93938 229.33252" stroke="none" fill="#0E0620" fill-rule="nonzero" />
                <path d="M437.475 263.931C 437.47504 264.6631 437.21622 265.2879 436.69855 265.80554C 436.18094 266.32318 435.5561 266.58203 434.824 266.582C 434.09198 266.58203 433.46713 266.32318 432.94946 265.80554C 432.43185 265.2879 432.17303 264.6631 432.173 263.931C 432.17303 263.19897 432.43185 262.5741 432.94946 262.05646C 433.46713 261.53882 434.09198 261.28003 434.824 261.28C 435.5561 261.28003 436.18094 261.53882 436.69855 262.05646C 437.21622 262.5741 437.47504 263.19897 437.475 263.931C 437.47504 263.96185 437.4745 263.99268 437.4734 264.02353" stroke="none" fill="#0E0620" fill-rule="nonzero" />
                <path d="M186.359 544.176C 186.35901 544.9081 186.10019 545.53296 185.58253 546.05054C 185.06491 546.56824 184.44006 546.827 183.708 546.827C 182.97595 546.827 182.3511 546.56824 181.83345 546.05054C 181.31583 545.53296 181.057 544.9081 181.05699 544.176C 181.057 543.444 181.31583 542.81915 181.83345 542.3015C 182.3511 541.7839 182.97595 541.525 183.708 541.525C 184.44006 541.525 185.06491 541.7839 185.58253 542.3015C 186.10019 542.81915 186.35901 543.444 186.359 544.176C 186.35901 544.2069 186.35846 544.23773 186.35738 544.26855" stroke="none" fill="#0E0620" fill-rule="nonzero" />
                <path d="M385.16602 530.923C 385.16602 531.655 384.9072 532.2799 384.38956 532.7975C 383.87192 533.3152 383.24707 533.574 382.515 533.574C 381.78296 533.574 381.1581 533.3152 380.64047 532.7975C 380.12283 532.2799 379.864 531.655 379.864 530.923C 379.864 530.1909 380.12283 529.5661 380.64047 529.04846C 381.1581 528.5308 381.78296 528.272 382.515 528.272C 383.24707 528.272 383.87192 528.5308 384.38956 529.04846C 384.9072 529.5661 385.16602 530.1909 385.16602 530.923C 385.16602 530.95386 385.16547 530.9847 385.1644 531.0155" stroke="none" fill="#0E0620" fill-rule="nonzero" />
                <path d="M133.344 305.608C 133.344 306.3401 133.08517 306.9649 132.56754 307.48254C 132.0499 308.00018 131.42505 308.25903 130.693 308.259C 129.96094 308.25903 129.33609 308.00018 128.81845 307.48254C 128.30081 306.9649 128.04199 306.3401 128.04199 305.608C 128.04199 304.87598 128.30081 304.2511 128.81845 303.73346C 129.33609 303.21582 129.96094 302.95703 130.693 302.957C 131.42505 302.95703 132.0499 303.21582 132.56754 303.73346C 133.08517 304.2511 133.344 304.87598 133.344 305.608C 133.344 305.63885 133.34346 305.66968 133.34238 305.70053" stroke="none" fill="#0E0620" fill-rule="nonzero" />
                <path d="M482.947 477.014C 482.947 477.74606 482.68817 478.3709 482.17053 478.88855C 481.6529 479.4062 481.02805 479.665 480.296 479.665C 479.56393 479.665 478.9391 479.4062 478.42145 478.88855C 477.9038 478.3709 477.645 477.74606 477.645 477.014C 477.645 476.28195 477.9038 475.6571 478.42145 475.13947C 478.9391 474.62183 479.56393 474.363 480.296 474.363C 481.02805 474.363 481.6529 474.62183 482.17053 475.13947C 482.68817 475.6571 482.947 476.28195 482.947 477.014C 482.947 477.04486 482.94647 477.0757 482.94537 477.10654" stroke="none" fill="#0E0620" fill-rule="nonzero" />
			</g>
		</g>
		<g clip-path="url(#1)" >
            <path d="M273.813 410.969C 273.813 410.969 219.28598 450.47 158.47299 449.18698C 156.193 449.13898 153.547 448.94598 150.63199 448.63898C 82.59399 441.46097 16.343994 404.67596 -16.698013 344.76898C -17.606014 343.123 -18.491013 341.469 -19.352013 339.805C -37.747013 304.294 -56.61101 256.41998 -51.427013 220.98799" stroke="#0E0620" stroke-width="3" stroke-linecap="square" fill="none" />
            <path d="M338.164 454.689L273.438 437.336C 262.352 434.364 255.77399 422.967 258.746 411.881L258.746 411.881L274.44 353.34402C 278.329 338.84003 293.239 330.234 307.743 334.12302L307.743 334.12302L360.092 348.15802C 374.596 352.04703 383.20203 366.95703 379.31302 381.46103L379.31302 381.46103L363.61902 439.99802C 360.647 451.083 349.251 457.661 338.164 454.689z" stroke="#0E0620" stroke-width="3" stroke-linecap="square" fill="#FFFFFF" fill-rule="nonzero" />
			<g>
                <path d="M323.396 236.625L295.285 353.753" stroke="#0E0620" stroke-width="3" stroke-linecap="square" fill="#FFFFFF" fill-rule="nonzero" />
                <path d="M330.041 235.617C 330.041 237.37741 329.41858 238.88002 328.1738 240.12482C 326.92902 241.36961 325.42642 241.992 323.666 241.992C 321.90558 241.992 320.40295 241.36961 319.15817 240.12482C 317.9134 238.88002 317.291 237.37741 317.291 235.617C 317.291 233.8566 317.9134 232.354 319.15817 231.10919C 320.40295 229.86441 321.90558 229.242 323.666 229.242C 325.42642 229.242 326.92902 229.86441 328.1738 231.10919C 329.41858 232.354 330.041 233.8566 330.041 235.617C 330.041 235.6912 330.0397 235.76535 330.0371 235.8395" stroke="#0E0620" stroke-width="3" stroke-linecap="square" fill="#FFFFFF" fill-rule="nonzero" />
			</g>
			<g>
                <path d="M360.633 363.039C 361.985 364.1 365.543 368.095 366.457 369.673L366.457 369.673L394.331 417.307C 398.186 423.956 395.921 432.471 389.272 436.327C 382.62302 440.182 374.108 437.917 370.252 431.268L370.252 431.268L364.64902 421.605" stroke="#0E0620" stroke-width="3" stroke-linecap="square" fill="#FFFFFF" fill-rule="nonzero" />
                <path d="M388.762 434.677C 393.996 431.638 396.49298 425.711 395.44 420.083C 397.784 421.426 399.823 423.372 401.277 425.876C 405.68802 433.47202 403.10602 443.206 395.51 447.617C 387.914 452.028 378.18002 449.446 373.769 441.85C 372.015 438.829 370.95203 436.032 371.285 432.80402C 375.625 437.355 383.087 437.973 388.762 434.677z" stroke="#0E0620" stroke-width="3" stroke-linecap="square" fill="#FFFFFF" fill-rule="nonzero" />
			</g>
			<g>
                <path d="M301.301 347.66C 299.599 347.902 295.391 349.28702 293.809 350.196L293.809 350.196L245.844 377.497C 239.18 381.32602 236.881 389.832 240.70999 396.496C 244.53899 403.16 253.045 405.459 259.70898 401.63L259.70898 401.63L269.39398 396.066" stroke="#0E0620" stroke-width="3" stroke-linecap="square" fill="#FFFFFF" fill-rule="nonzero" />
                <path d="M241.978 395.324C 238.966 390.074 239.769 383.693 243.496 379.34702C 240.795 379.338 238.056 380.00302 235.544 381.44302C 227.925 385.81403 225.291 395.53302 229.66101 403.153C 234.03201 410.772 243.751 413.406 251.37001 409.036C 254.40001 407.298 256.72 405.40802 258.04602 402.446C 252.013 404.214 245.243 401.017 241.978 395.324z" stroke="#0E0620" stroke-width="3" stroke-linecap="square" fill="#FFFFFF" fill-rule="nonzero" />
			</g>
			<g>
                <path d="M353.351 365.387C 345.403 366.65 337.10202 366.31598 328.871 364.10898C 320.639 361.90198 313.285 358.03897 307.035 352.96896C 290.031 357.17596 275.766 370.25797 270.907 388.37997L270.907 388.37997L269.53302 393.50296C 262.42102 420.02795 278.15002 447.29395 304.66302 454.40195C 331.17603 461.50995 358.43402 445.76996 365.54602 419.24396L365.54602 419.24396L366.92 414.12097C 371.778 395.999 365.971 377.536 353.351 365.387z" stroke="#0E0620" stroke-width="3" stroke-linecap="square" fill="#FFFFFF" fill-rule="nonzero" />
                <path d="M269.678 394.912C 295.978 415.555 329.332 424.49698 362.784 420.636L362.784 420.636L365.203 420.52197" stroke="#0E0620" stroke-width="3" stroke-linecap="square" fill="none" />
			</g>
			<g>
				<g>
                    <path d="M312.957 456.734L298.642 510.129C 296.746 517.199 300.941 524.467 308.012 526.363C 315.082 528.259 322.35 524.06396 324.246 516.993L324.246 516.993L342.084 450.45898C 333.451 455.886 323.526 457.387 312.957 456.734z" stroke="#0E0620" stroke-width="3" stroke-linecap="square" fill="#FFFFFF" fill-rule="nonzero" />
                    <path d="M304.883 486.849L330.487 493.713" stroke="#0E0620" stroke-width="3" stroke-linecap="square" fill="none" />
				</g>
				<g>
                    <path d="M296.315 452.273L282 505.667C 280.104 512.737 272.836 516.932 265.766 515.037C 258.69598 513.141 254.50099 505.873 256.396 498.80298L256.396 498.80298L274.234 432.26898C 278.993 441.286 286.836 447.55 296.315 452.273z" stroke="#0E0620" stroke-width="3" stroke-linecap="square" fill="#FFFFFF" fill-rule="nonzero" />
                    <path d="M262.638 475.522L288.241 482.387" stroke="#0E0620" stroke-width="3" stroke-linecap="square" fill="none" />
				</g>
			</g>
			<g>
                <path transform="matrix(0.259 -0.9659 0.9659 0.259 -51.5445 563.2371)"  d="M279.334 315.211C 279.334 281.90546 307.0749 254.906 341.295 254.906C 375.51514 254.906 403.256 281.90546 403.256 315.211C 403.256 348.51654 375.51514 375.516 341.295 375.516C 307.0749 375.516 279.334 348.51654 279.334 315.211" stroke="#0E0620" stroke-width="3" stroke-linecap="square" fill="#FFFFFF" fill-rule="nonzero" />
                <path d="M330.868 261.338C 322.93903 263.058 315.487 266.584 309.069 271.584" stroke="#0E0620" stroke-width="3" stroke-linecap="square" fill="none" />
                <path d="M380.857 346.164C 379.61 350.815 376.189 354.585 371.66098 356.224C 362.32898 359.601 345.46097 364.041 329.36 359.724C 313.259 355.407 300.875 343.125 294.48297 335.532C 291.38196 331.84802 290.30597 326.872 291.55298 322.221L291.55298 322.221L299.00598 294.423C 299.762 291.603 302.18698 289.555 305.094 289.293C 311.849 288.683 325.63998 288.685 346.879 294.38C 368.118 300.075 380.06 306.971 385.604 310.878C 387.991 312.56 389.065 315.546 388.309 318.366L388.309 318.366L380.857 346.164z" stroke="#0E0620" stroke-width="3" stroke-linecap="square" fill="#FFFFFF" fill-rule="nonzero" />
				<g clip-path="url(#2)" >
                    <path d="M278.436 375.599L383.003 264.076L364.393 251.618L264.807 364.928L278.436 375.599" stroke="#0E0620" stroke-width="3" fill="none" />
				</g>
			</g>
		</g>
	</g>
</g>
</svg>